<?xml version="1.0" encoding="UTF-8"?>
<svg width="364px" height="96px" viewBox="0 0 364 96" version="1.1" xmlns="http://www.w3.org/2000/svg" xmlns:xlink="http://www.w3.org/1999/xlink">
    <title>TSI_Logo_New_Pyramid_B&amp;W_NoBox (1)</title>
    <g id="TSI_Logo_New_Pyramid_B&amp;W_NoBox-(1)" stroke="none" stroke-width="1" fill="none" fill-rule="evenodd">
        <g id="TRAVELSTORE" transform="translate(99.000000, 37.000000)" fill="#ffffff">
            <polyline id="Fill-1" points="19 1 19 5.21628301 11.5340668 5.21628301 11.5340668 22 7.46691461 22 7.46691461 5.21628301 0 5.21628301 0 1 19 1"></polyline>
            <path d="M37.0239241,1 C40.8162514,1 44.4084088,2.45936516 44.4084088,7.20281076 C44.4084088,11.2145384 41.76359,12.6749213 39.8282843,13.4056215 L45,22 L39.8282843,22 L34.6585504,13.4453114 L28.1054643,13.4453114 L28.1054643,22 L24,22 L24,1 L37.0239241,1 Z M28.1054643,5.21628301 L28.1054643,9.23106373 L37.0239241,9.23106373 C38.2507078,9.23106373 40.3019536,9.06619821 40.3019536,7.20281076 C40.3019536,5.25699055 38.4469139,5.21628301 37.0239241,5.21628301 L28.1054643,5.21628301 L28.1054643,5.21628301 Z" id="Fill-2"></path>
            <path d="M58.1495101,1 L63.7307257,1 L74,22 L69.2266854,22 L67.1237069,17.581197 L54.8742632,17.581197 L52.7733146,22 L48,22 L58.1495101,1 Z M56.9376586,13.367967 L65.0227583,13.367967 L60.9781786,5.09619578 L56.9376586,13.367967 L56.9376586,13.367967 Z" id="Fill-3"></path>
            <polyline id="Fill-4" points="76.6240692 1 84.4019137 17.783717 92.3348947 1 97 1 87.0732645 22 81.7675955 22 72 1 76.6240692 1"></polyline>
            <polyline id="Fill-5" points="119.516992 1 119.516992 5.21628301 105.187417 5.21628301 105.187417 9.02752605 112.75488 9.02752605 112.75488 13.2417737 105.187417 13.2417737 105.187417 17.783717 120 17.783717 120 22 101 22 101 1 119.516992 1"></polyline>
            <polyline id="Fill-6" points="129.139378 1 129.139378 17.783717 141 17.783717 141 22 125 22 125 1 129.139378 1"></polyline>
            <path d="M158.02394,9.31997444 C161.914821,9.43947416 166,11.1988315 166,15.4004017 C166,18.8789483 163.566843,22 156.10069,22 C149.341702,22 145.610598,19.3991236 144,18.3186051 L145.294002,15.8382326 C146.866135,17.0000913 149.969963,19.2786197 155.903434,19.2786197 C161.051825,19.2786197 163.330135,17.7201022 163.330135,15.4797334 C163.330135,12.9612014 160.893033,12.1186781 158.615709,12.0403506 L152.526405,11.8806829 C150.09029,11.8395107 145.531696,10.5983202 145.531696,6.11758262 C145.531696,2.59987219 148.793329,0 154.331301,0 C160.618847,0 164.117188,2.39802812 164.82238,2.87703122 L163.605308,5.31924411 C160.971936,3.75972248 157.906572,2.71937192 154.881646,2.71937192 C149.853582,2.71937192 148.202546,4.32006573 148.202546,6.07841884 C148.202546,8.39912361 150.207657,9.11712616 152.365642,9.15829834 L158.02394,9.31997444" id="Fill-7"></path>
            <polyline id="Fill-8" points="179.83476 22 177.166226 22 177.166226 3.75590017 169 3.75590017 169 1 188 1 188 3.75590017 179.83476 3.75590017 179.83476 22"></polyline>
            <path d="M202.498994,22 C195.410733,22 190,17.6006025 190,10.9989958 C190,4.39839328 195.410733,0 202.498994,0 C209.591278,0 215,4.39839328 215,10.9989958 C215,17.6006025 209.591278,22 202.498994,22 Z M212.275525,10.9989958 C212.275525,6.59758992 208.468903,2.71937192 202.498994,2.71937192 C196.531097,2.71937192 192.723469,6.59758992 192.723469,10.9989958 C192.723469,15.4004017 196.531097,19.2786197 202.498994,19.2786197 C208.468903,19.2786197 212.275525,15.4004017 212.275525,10.9989958 L212.275525,10.9989958 Z" id="Fill-9"></path>
            <path d="M241,22 L237.627563,22 L231.791572,13.4880543 L222.698747,13.4880543 L222.698747,22 L220,22 L220,1 L232.744305,1 C236.474516,1 240.563497,2.50109038 240.563497,7.24453598 C240.563497,11.1748486 237.229926,13.0402714 235.004556,13.2814635 L241,22 Z M232.744305,10.7311364 C235.363326,10.7311364 237.865746,10.040126 237.865746,7.24453598 C237.865746,4.20164769 235.045416,3.75590017 232.744305,3.75590017 L222.698747,3.75590017 L222.698747,10.7311364 L232.744305,10.7311364 L232.744305,10.7311364 Z" id="Fill-10"></path>
            <polyline id="Fill-11" points="265 22 246 22 246 1 264.549719 1 264.549719 3.75590017 248.777586 3.75590017 248.777586 9.87933123 257.806791 9.87933123 257.806791 12.6342137 248.777586 12.6342137 248.777586 19.2440998 265 19.2440998 265 22"></polyline>
        </g>
        <g id="Bellhop">
            <path d="M35,33.5019544 C35,32.6713355 34.3295269,32 33.4995106,32 C32.6734095,32 32,32.6713355 32,33.5019544 C32,34.3276873 32.6734095,35 33.4995106,35 C34.3295269,35 35,34.3276873 35,33.5019544 Z" id="Fill-37" fill="#ffffff"></path>
            <path d="M35,33.5019544 C35,32.6713355 34.3295269,32 33.4995106,32 C32.6734095,32 32,32.6713355 32,33.5019544 C32,34.3276873 32.6734095,35 33.4995106,35 C34.3295269,35 35,34.3276873 35,33.5019544 Z" id="Stroke-38" stroke="#ffffff" stroke-width="0.399"></path>
            <path d="M37,42.5009778 C37,41.6737288 36.3302872,41 35.4980418,41 C34.6687337,41 34,41.6737288 34,42.5009778 C34,43.3282269 34.6687337,44 35.4980418,44 C36.3302872,44 37,43.3282269 37,42.5009778 Z" id="Fill-39" fill="#ffffff"></path>
            <path d="M37,42.5009778 C37,41.6737288 36.3302872,41 35.4980418,41 C34.6687337,41 34,41.6737288 34,42.5009778 C34,43.3282269 34.6687337,44 35.4980418,44 C36.3302872,44 37,43.3282269 37,42.5009778 Z" id="Stroke-40" stroke="#ffffff" stroke-width="0.399"></path>
            <path d="M37.5014672,51 C36.6719922,51 36,51.6702544 36,52.4990215 C36,53.3268102 36.6719922,54 37.5014672,54 C38.3270297,54 39,53.3268102 39,52.4990215 C39,51.6702544 38.3270297,51 37.5014672,51 Z" id="Fill-41" fill="#ffffff"></path>
            <path d="M37.5014672,51 C36.6719922,51 36,51.6702544 36,52.4990215 C36,53.3268102 36.6719922,54 37.5014672,54 C38.3270297,54 39,53.3268102 39,52.4990215 C39,51.6702544 38.3270297,51 37.5014672,51 Z" id="Stroke-42" stroke="#ffffff" stroke-width="0.399"></path>
            <path d="M45.4985318,33 C46.3285481,33 47,32.3282269 47,31.5009778 C47,30.6717731 46.3285481,30 45.4985318,30 C44.6714519,30 44,30.6717731 44,31.5009778 C44,32.3282269 44.6714519,33 45.4985318,33 Z" id="Fill-43" fill="#ffffff"></path>
            <path d="M45.4985318,33 C46.3285481,33 47,32.3282269 47,31.5009778 C47,30.6717731 46.3285481,30 45.4985318,30 C44.6714519,30 44,30.6717731 44,31.5009778 C44,32.3282269 44.6714519,33 45.4985318,33 Z" id="Stroke-44" stroke="#ffffff" stroke-width="0.399"></path>
            <path d="M45.4985328,40 C44.6719922,40 44,40.6717731 44,41.5019557 C44,42.3282269 44.6719922,43 45.4985328,43 C46.3270297,43 47,42.3282269 47,41.5019557 C47,40.6717731 46.3270297,40 45.4985328,40 Z" id="Fill-45" fill="#ffffff"></path>
            <path d="M45.4985328,40 C44.6719922,40 44,40.6717731 44,41.5019557 C44,42.3282269 44.6719922,43 45.4985328,43 C46.3270297,43 47,42.3282269 47,41.5019557 C47,40.6717731 46.3270297,40 45.4985328,40 Z" id="Stroke-46" stroke="#ffffff" stroke-width="0.399"></path>
            <path d="M45.4985328,50 C44.671014,50 44,50.6709109 44,51.4995103 C44,52.3300686 44.671014,53 45.4985328,53 C46.3270297,53 47,52.3300686 47,51.4995103 C47,50.6709109 46.3270297,50 45.4985328,50 Z" id="Fill-47" fill="#ffffff"></path>
            <path d="M45.4985328,50 C44.671014,50 44,50.6709109 44,51.4995103 C44,52.3300686 44.671014,53 45.4985328,53 C46.3270297,53 47,52.3300686 47,51.4995103 C47,50.6709109 46.3270297,50 45.4985328,50 Z" id="Stroke-48" stroke="#ffffff" stroke-width="0.399"></path>
            <path d="M35.6754141,21.967583 C35.8790381,21.9888567 36.081639,22 36.2801468,22 L36.2811701,22 C42.4778904,22 45.9384763,11.9395865 46.0837759,11.5039831 L47.048688,8.54897085 L47.2584514,8.42132891 C47.2441261,8.39802919 47.2042199,8.34028641 47.1428257,8.26329604 L49,2.58019063 L48.5252183,2.27526822 C48.3809419,2.18206935 44.9357046,0 40.2339328,0 C37.9122091,0 35.6815535,0.536906571 33.6043834,1.59552424 L33.3045751,1.74849196 L31.5712124,8.76575954 C31.5006091,9.08385136 29.8726398,16.5681264 32.4532423,20.1188009 C33.2390879,21.2017314 34.3237186,21.8227195 35.6754141,21.967583 Z M34.5774813,2.74835382 C36.3589361,1.8953815 38.2590863,1.46281715 40.2339328,1.46281715 C43.5205684,1.46281715 46.1840531,2.67035042 47.2359402,3.22650458 L45.9313137,7.22291293 C45.1311427,6.68803242 43.8909801,6.04577059 41.9898066,5.43389971 C39.097117,4.50393701 35.835039,4.63461804 34.0679095,4.81189851 L34.5774813,2.74835382 Z M33.0088597,9.09702077 L33.6934049,6.32638026 C35.1249128,6.15315191 38.6008473,5.88165953 41.5344664,6.82276558 C43.6832631,7.5136529 44.8538456,8.22277478 45.4534622,8.68370401 L44.6819419,11.047106 C44.6481751,11.14537 41.2407975,21.0902979 35.8319693,20.5138831 C34.9028705,20.4156191 34.1906979,20.0073675 33.6534987,19.2678547 C31.4555867,16.2449694 32.9976041,9.15071142 33.0088597,9.09702077 Z" id="Fill-49" fill="#ffffff"></path>
            <path d="M35.6754141,21.967583 C35.8790381,21.9888567 36.081639,22 36.2801468,22 L36.2811701,22 C42.4778904,22 45.9384763,11.9395865 46.0837759,11.5039831 L47.048688,8.54897085 L47.2584514,8.42132891 C47.2441261,8.39802919 47.2042199,8.34028641 47.1428257,8.26329604 L49,2.58019063 L48.5252183,2.27526822 C48.3809419,2.18206935 44.9357046,0 40.2339328,0 C37.9122091,0 35.6815535,0.536906571 33.6043834,1.59552424 L33.3045751,1.74849196 L31.5712124,8.76575954 C31.5006091,9.08385136 29.8726398,16.5681264 32.4532423,20.1188009 C33.2390879,21.2017314 34.3237186,21.8227195 35.6754141,21.967583 Z M34.5774813,2.74835382 C36.3589361,1.8953815 38.2590863,1.46281715 40.2339328,1.46281715 C43.5205684,1.46281715 46.1840531,2.67035042 47.2359402,3.22650458 L45.9313137,7.22291293 C45.1311427,6.68803242 43.8909801,6.04577059 41.9898066,5.43389971 C39.097117,4.50393701 35.835039,4.63461804 34.0679095,4.81189851 L34.5774813,2.74835382 Z M33.0088597,9.09702077 L33.6934049,6.32638026 C35.1249128,6.15315191 38.6008473,5.88165953 41.5344664,6.82276558 C43.6832631,7.5136529 44.8538456,8.22277478 45.4534622,8.68370401 L44.6819419,11.047106 C44.6481751,11.14537 41.2407975,21.0902979 35.8319693,20.5138831 C34.9028705,20.4156191 34.1906979,20.0073675 33.6534987,19.2678547 C31.4555867,16.2449694 32.9976041,9.15071142 33.0088597,9.09702077 Z" id="Stroke-50" stroke="#ffffff" stroke-width="0.399"></path>
            <path d="M69.860847,53.4906114 L69.9732457,54.230104 L76,53.0578345 L75.9681703,52.4364622 C75.4539217,42.4726677 71.7775917,34.3660419 65.3380459,28.9920647 C58.6468467,23.4086472 49.3217399,21.0492191 39.0845133,22.3485424 C19.2078618,24.8667877 10.0458822,36.222218 11.078358,57.0649911 L11.1081984,57.67743 L17.4870687,58.3613366 L17.5437654,57.6258144 C17.5527175,57.5126571 18.474784,46.6356637 25.7319551,40.5787725 C29.5206838,54.3273795 35.8935861,66.0649637 35.9691817,66.2019435 L36.40684,67 L43.4282724,60.6483043 L51.6104941,65.2232325 L51.891988,64.4182278 C56.3909168,51.6056497 57.2383825,41.8661845 57.1578136,35.5829787 C67.4766037,38.4873484 69.8379694,53.3377498 69.860847,53.4906114 Z M56.6763894,28.7637649 L55.2510158,28.935486 C55.7254772,32.8493376 57.1538349,44.6435004 50.816741,63.1367715 L43.2283421,58.896352 L36.8027219,64.7080692 C35.0023546,61.2398984 28.0097679,47.1418935 25.3967486,32.7570251 L23.9853005,33.0131178 C24.354326,35.0459781 24.8108833,37.0738753 25.3271212,39.0670312 C18.2151731,44.5809661 16.5341672,54.0603681 16.1919979,56.7811054 L12.4848328,56.3840624 C11.7050052,36.8217529 20.4691135,26.1502293 39.2655448,23.7679712 C49.1058947,22.5212561 58.037109,24.7665344 64.416974,30.0908812 C70.4089147,35.0906454 73.8882985,42.618581 74.4980361,51.8915206 L71.1509445,52.540686 C70.5203186,49.2958519 67.4169231,36.6341501 57.1210105,34.0910896 C57.0295001,31.6860015 56.813655,29.899308 56.6763894,28.7637649 Z" id="Fill-51" fill="#ffffff"></path>
            <path d="M69.860847,53.4906114 L69.9732457,54.230104 L76,53.0578345 L75.9681703,52.4364622 C75.4539217,42.4726677 71.7775917,34.3660419 65.3380459,28.9920647 C58.6468467,23.4086472 49.3217399,21.0492191 39.0845133,22.3485424 C19.2078618,24.8667877 10.0458822,36.222218 11.078358,57.0649911 L11.1081984,57.67743 L17.4870687,58.3613366 L17.5437654,57.6258144 C17.5527175,57.5126571 18.474784,46.6356637 25.7319551,40.5787725 C29.5206838,54.3273795 35.8935861,66.0649637 35.9691817,66.2019435 L36.40684,67 L43.4282724,60.6483043 L51.6104941,65.2232325 L51.891988,64.4182278 C56.3909168,51.6056497 57.2383825,41.8661845 57.1578136,35.5829787 C67.4766037,38.4873484 69.8379694,53.3377498 69.860847,53.4906114 Z M56.6763894,28.7637649 L55.2510158,28.935486 C55.7254772,32.8493376 57.1538349,44.6435004 50.816741,63.1367715 L43.2283421,58.896352 L36.8027219,64.7080692 C35.0023546,61.2398984 28.0097679,47.1418935 25.3967486,32.7570251 L23.9853005,33.0131178 C24.354326,35.0459781 24.8108833,37.0738753 25.3271212,39.0670312 C18.2151731,44.5809661 16.5341672,54.0603681 16.1919979,56.7811054 L12.4848328,56.3840624 C11.7050052,36.8217529 20.4691135,26.1502293 39.2655448,23.7679712 C49.1058947,22.5212561 58.037109,24.7665344 64.416974,30.0908812 C70.4089147,35.0906454 73.8882985,42.618581 74.4980361,51.8915206 L71.1509445,52.540686 C70.5203186,49.2958519 67.4169231,36.6341501 57.1210105,34.0910896 C57.0295001,31.6860015 56.813655,29.899308 56.6763894,28.7637649 Z" id="Stroke-52" stroke="#ffffff" stroke-width="0.399"></path>
            <path d="M79.4356268,62.0979083 L79.1431085,58.4996885 L68.0194799,56 L67.8667754,58.8366118 L63.0149378,57.4697523 L59,59.6335262 L59.1884016,81.7272215 L81.9641749,90 L89.5170969,86.0204717 L90,65.0757454 L79.4356268,62.0979083 Z M69.3561398,57.7905355 L77.8034738,59.6890076 L77.9660941,61.6833111 L69.2778044,59.235069 L69.3561398,57.7905355 Z M88.1080511,85.1236908 L82.6334965,88.007714 L82.6334965,71.9937695 L81.2016441,71.9937695 L81.2016441,88.1781931 L60.6103381,80.6972853 L60.4378019,60.5050883 L63.1805329,59.0262572 L67.7854652,60.3245216 L67.6714327,62.4560154 L69.1013019,62.5346981 L69.1984774,60.7229788 L78.0920257,63.2297285 L78.3934683,66.9540424 L79.8193711,66.8340009 L79.5615584,63.643317 L88.543358,66.1742768 L88.1080511,85.1236908 Z" id="Fill-53" fill="#ffffff"></path>
            <path d="M79.4356268,62.0979083 L79.1431085,58.4996885 L68.0194799,56 L67.8667754,58.8366118 L63.0149378,57.4697523 L59,59.6335262 L59.1884016,81.7272215 L81.9641749,90 L89.5170969,86.0204717 L90,65.0757454 L79.4356268,62.0979083 Z M69.3561398,57.7905355 L77.8034738,59.6890076 L77.9660941,61.6833111 L69.2778044,59.235069 L69.3561398,57.7905355 Z M88.1080511,85.1236908 L82.6334965,88.007714 L82.6334965,71.9937695 L81.2016441,71.9937695 L81.2016441,88.1781931 L60.6103381,80.6972853 L60.4378019,60.5050883 L63.1805329,59.0262572 L67.7854652,60.3245216 L67.6714327,62.4560154 L69.1013019,62.5346981 L69.1984774,60.7229788 L78.0920257,63.2297285 L78.3934683,66.9540424 L79.8193711,66.8340009 L79.5615584,63.643317 L88.543358,66.1742768 L88.1080511,85.1236908 Z" id="Stroke-54" stroke="#ffffff" stroke-width="0.399"></path>
            <path d="M22.9787205,61.7022927 L19.0404242,63.1699258 L18.4223194,60 L8.93505957,62.9291976 L8.97899594,66.9173972 L0,70.2623061 L0,91.1945381 L7.90754769,96 L29,84.7889413 L28.2430962,62.2201618 L22.9787205,61.7022927 Z M17.3179189,61.8671612 L17.6714069,63.6817262 L10.4139178,66.384356 L10.3879554,64.0074174 L17.3179189,61.8671612 Z M8.65047173,93.9568442 L8.65047173,74.5681052 L7.21055712,74.5681052 L7.21055712,93.8749157 L1.44091316,90.3691841 L1.44091316,71.2818611 L8.99597135,68.4659474 L9.01594243,70.2552259 L10.4568556,70.238031 L10.4318917,67.9329063 L17.9529991,65.1301416 L18.3244611,67.0367498 L19.7384133,66.7545516 L19.3230149,64.6203641 L23.1684457,63.1871207 L26.8461194,63.5482131 L27.5281317,83.9221173 L8.65047173,93.9568442 Z" id="Fill-55" fill="#ffffff"></path>
            <path d="M22.9787205,61.7022927 L19.0404242,63.1699258 L18.4223194,60 L8.93505957,62.9291976 L8.97899594,66.9173972 L0,70.2623061 L0,91.1945381 L7.90754769,96 L29,84.7889413 L28.2430962,62.2201618 L22.9787205,61.7022927 Z M17.3179189,61.8671612 L17.6714069,63.6817262 L10.4139178,66.384356 L10.3879554,64.0074174 L17.3179189,61.8671612 Z M8.65047173,93.9568442 L8.65047173,74.5681052 L7.21055712,74.5681052 L7.21055712,93.8749157 L1.44091316,90.3691841 L1.44091316,71.2818611 L8.99597135,68.4659474 L9.01594243,70.2552259 L10.4568556,70.238031 L10.4318917,67.9329063 L17.9529991,65.1301416 L18.3244611,67.0367498 L19.7384133,66.7545516 L19.3230149,64.6203641 L23.1684457,63.1871207 L26.8461194,63.5482131 L27.5281317,83.9221173 L8.65047173,93.9568442 Z" id="Stroke-56" stroke="#333" stroke-width="0.399"></path>
        </g>
    </g>
</svg>